<svg width="239" height="239" viewBox="0 0 239 239" fill="none" xmlns="http://www.w3.org/2000/svg">
<path d="M212.444 0C219.487 0 226.242 2.79781 231.222 7.77794C236.202 12.7581 239 19.5126 239 26.5556V212.444C239 219.487 236.202 226.242 231.222 231.222C226.242 236.202 219.487 239 212.444 239H26.5556C19.5126 239 12.7581 236.202 7.77794 231.222C2.79781 226.242 0 219.487 0 212.444V26.5556C0 19.5126 2.79781 12.7581 7.77794 7.77794C12.7581 2.79781 19.5126 0 26.5556 0H212.444ZM205.806 205.806V135.433C205.806 123.953 201.245 112.943 193.128 104.826C185.01 96.7082 174 92.1478 162.52 92.1478C151.234 92.1478 138.089 99.0522 131.716 109.409V94.6706H94.6706V205.806H131.716V140.346C131.716 130.122 139.948 121.757 150.172 121.757C155.102 121.757 159.83 123.716 163.316 127.202C166.802 130.688 168.761 135.416 168.761 140.346V205.806H205.806ZM51.5178 73.8244C57.4339 73.8244 63.1077 71.4743 67.291 67.291C71.4743 63.1077 73.8244 57.4339 73.8244 51.5178C73.8244 39.1694 63.8661 29.0783 51.5178 29.0783C45.5665 29.0783 39.8589 31.4425 35.6507 35.6507C31.4425 39.8589 29.0783 45.5665 29.0783 51.5178C29.0783 63.8661 39.1694 73.8244 51.5178 73.8244ZM69.9739 205.806V94.6706H33.1944V205.806H69.9739Z" fill="white"/>
</svg>
