<svg width="682" height="675" viewBox="0 0 682 675" fill="none" xmlns="http://www.w3.org/2000/svg">
<path d="M65.8 67.4199C65.77 132.69 65.78 198.66 65.81 265.32C65.81 266.25 65.53 267.35 65.53 268.23C65.53 269.02 65.14 269.42 64.35 269.42L0.520039 269.2C0.250039 269.19 0.0400391 268.98 0.0400391 268.71C0.490039 185.69 0.550039 96.5299 0.220039 1.2299C0.220039 0.969905 0.430037 0.759906 0.690037 0.759906C68.03 0.499906 134.37 0.409905 199.72 0.489905C199.99 0.489905 200.25 0.539905 200.5 0.639905C201.33 0.969905 201.61 1.98991 201.07 2.68991C195.14 10.3399 190.07 17.9899 185.88 25.6199C179.79 36.7299 172.55 50.2999 164.17 66.3099C164 66.6399 163.72 66.8099 163.35 66.8099L66.43 66.7899C66.08 66.7899 65.8 67.0699 65.8 67.4199Z" fill="white"/>
<path d="M148.07 230.38L130.07 230.42C129.56 230.42 129.14 230.01 129.14 229.5L129.02 162.78C129.02 162.26 129.28 162 129.79 162L190.24 161.99C190.85 161.99 191.32 161.72 191.63 161.19C200.39 145.99 209.23 129.96 217.09 113.85C224.82 98.04 232.44 82.89 239.31 67.19C248.58 45.98 257.17 25.19 265.07 4.80998C265.61 3.41998 266.26 2.11998 267.03 0.909981C267.2 0.629981 267.45 0.489981 267.78 0.489981L680.57 0.47998C681 0.47998 681.34 0.819981 681.34 1.24998L681.36 268.8C681.36 269.1 681.21 269.25 680.91 269.25C659.14 269.33 637.53 269.92 616.15 269.28C615.99 269.27 615.86 269.15 615.86 268.99C615.77 212.61 615.79 156.14 615.9 99.58C615.92 89.2 616.04 78.36 616.26 67.05C616.26 66.92 616.16 66.82 616.03 66.82L313.13 66.77C312.89 66.77 312.67 66.92 312.57 67.14C302.01 91.81 291.35 116 280.59 139.71C277.27 147.02 273.45 154.24 270.03 161.61C269.93 161.81 270.08 162.04 270.3 162.04L476.92 161.99C477.38 161.99 477.75 161.61 477.75 161.15L477.62 88.52C477.62 88.13 477.94 87.81 478.33 87.81L545.8 87.73C546.8 87.72 547.3 88.22 547.3 89.23L547.27 161.24C547.27 161.67 547.62 162.02 548.06 162.03L595.29 162.17C595.65 162.17 595.83 162.35 595.83 162.72L595.6 229.74C595.6 230.16 595.26 230.5 594.83 230.5L547.95 230.47C547.56 230.47 547.36 230.67 547.35 231.07C547.02 261.72 547.02 292.34 547.35 322.94C547.36 323.09 547.48 323.21 547.63 323.21C585.26 323.24 623.57 323.21 662.57 323.13C668.97 323.12 675.16 323.01 681.13 322.82C681.43 322.81 681.58 322.95 681.57 323.25L681.23 392.06C681.23 392.27 681.12 392.38 680.91 392.38L547.7 392.39C547.43 392.39 547.22 392.6 547.22 392.87L547.07 673.81C547.07 674.26 546.71 674.63 546.26 674.63L478.83 674.5C478.18 674.5 477.85 674.17 477.85 673.51L477.76 392.84C477.76 392.5 477.48 392.22 477.14 392.22L376.28 392.29C375.79 392.29 375.41 392.71 375.45 393.19C377.03 411.52 379.22 429.96 382.32 448.15C388.98 487.15 396.79 524.05 405.75 558.86C406.74 562.72 408.35 569.29 410.59 578.57C414.15 593.35 418.31 608.01 423.08 622.56C428.82 640.06 435.14 657.27 442.04 674.19C442.1 674.35 441.99 674.53 441.82 674.53C439.74 674.63 437.66 674.68 435.57 674.69C413.9 674.74 392.59 674.74 371.64 674.71C371.04 674.71 370.5 674.32 370.3 673.75C365.62 660.01 360.42 645.89 356.34 632.69C347.31 603.52 339.41 574.19 332.62 544.7C332.55 544.38 332.34 544.22 332.01 544.23L185.61 544.28C185 544.28 184.5 544.52 184.12 545C174.87 556.73 165.72 568.15 156.68 579.26C146.71 591.51 135.57 603.63 125.22 614.91C112.03 629.3 97.9602 643.65 83.0002 657.97C77.2102 663.51 71.1102 668.53 65.5002 674.14C65.2702 674.37 64.9602 674.5 64.6402 674.5L1.01016 674.57C0.450158 674.57 -0.00983998 674.11 0.000160023 673.55C0.22016 647.7 0.560159 622.66 0.440159 597.5C0.280159 564.9 0.590158 532.33 0.580158 499.75C0.560158 438.72 0.460161 378.76 0.290161 319.85C0.290161 319.28 0.960159 318.97 1.39016 319.35C3.22016 320.95 4.88016 322.57 6.38016 324.22C20.2102 339.33 30.9602 350.11 38.6302 356.56C46.6002 363.25 55.1602 370.03 64.3102 376.9C65.2602 377.61 65.7402 378.56 65.7402 379.74L65.9402 573.94C65.9402 574.41 66.5002 574.64 66.8402 574.31C74.4902 566.86 81.9202 559.11 89.1502 551.08C102.98 535.73 116.34 520.75 129 504.89C140.65 490.3 150.37 477.7 158.18 467.11C165.3 457.44 172.16 447.97 178.75 438.69C182.56 433.34 186.33 427.84 190.07 422.19C196.37 412.7 202.82 403.51 208.98 393.91C227.1 365.63 243.9 336.68 259.38 307.05C268.89 288.87 277.72 270.28 286.63 251.8C286.8 251.45 287.16 251.23 287.55 251.23H369.53C369.8 251.23 370.01 251.44 370.01 251.71L370.22 322.22C370.22 322.93 370.58 323.29 371.29 323.28L476.55 323.07C477.26 323.07 477.84 322.49 477.84 321.77L477.8 231.04C477.8 230.76 477.58 230.54 477.31 230.54C401.82 230.39 323.15 230.41 241.32 230.61C238.21 230.62 234.9 230.67 231.39 230.78C231.06 230.79 230.8 230.94 230.62 231.23C228.07 235.43 225.51 239.48 222.94 243.37C205.45 269.88 186.9 295.93 167.29 321.53C162.9 327.26 158.75 332.47 154.86 337.15C146.3 347.41 137.69 357.58 129.02 367.65C125.38 371.88 120.63 376.7 114.77 382.11C114.51 382.36 114.25 382.35 114 382.09C101.08 368.7 88.2802 355.56 75.6002 342.68C72.3702 339.4 68.8802 336.1 65.1302 332.78C64.9402 332.62 64.9402 332.33 65.1202 332.17C68.0402 329.52 70.8002 326.76 73.4102 323.88C88.6702 307.03 103.31 290.63 117.65 272.58C128.33 259.13 138.75 245.62 148.9 232.03C149.72 230.93 149.44 230.38 148.07 230.38ZM303.86 367.77C294.76 384.07 285.3 400.32 275.73 416.16C272.18 422.03 268.61 427.62 265.02 432.95C256.13 446.12 247.47 459.4 239.05 472.79C238.61 473.49 237.99 474.05 237.43 474.65C236.77 475.37 236.93 475.73 237.9 475.72L317.33 475.63C317.68 475.63 317.95 475.32 317.89 474.98C315.64 461.79 313.49 448.77 311.94 435.46C310.35 421.69 308.31 408.09 307.3 394.25C306.59 384.7 305.77 375.88 304.83 367.78C304.79 367.47 304.45 367.3 304.18 367.45C304.04 367.52 303.93 367.63 303.86 367.77Z" fill="white"/>
<path d="M681.37 674.37C681.37 674.6 681.19 674.78 680.96 674.78H616.1C615.87 674.78 615.69 674.6 615.69 674.37V458.39C615.69 458.16 615.87 457.98 616.1 457.98H680.96C681.19 457.98 681.37 458.16 681.37 458.39V674.37Z" fill="white"/>
<path d="M295.67 663.18C297.08 666.53 298.54 670.03 300.06 673.66C300.27 674.17 299.9 674.73 299.34 674.73L157.34 674.42C157.03 674.42 156.8 674.13 156.88 673.83C156.97 673.49 157.15 673.21 157.4 672.98C168.74 662.93 179.17 652.76 188.7 642.45C199.1 631.19 208.51 619.77 216.94 608.18C217.19 607.85 217.51 607.71 217.92 607.77C220.47 608.17 222.97 607.87 225.56 607.85C240.02 607.76 253.87 607.7 267.12 607.67C270.06 607.67 273.01 607.55 275.97 607.36C276.44 607.33 276.73 607.55 276.85 608C281.88 626.84 288.16 645.23 295.67 663.18Z" fill="white"/>
</svg>
