<svg width="204" height="204" viewBox="0 0 204 204" fill="none" xmlns="http://www.w3.org/2000/svg">
<g clip-path="url(#clip0_210_164)">
<path d="M187.639 69.9021C193.092 67.8586 199.226 70.6143 200.696 76.2484C206.238 97.4863 204.802 120.051 196.436 140.546C186.737 164.31 168.435 183.543 145.182 194.409C121.928 205.275 95.4335 206.975 70.9823 199.169C46.5311 191.364 25.9213 174.628 13.2644 152.299C0.607559 129.97 -3.16595 103.69 2.69673 78.7016C8.55941 53.7134 23.6272 31.854 44.8943 17.4842C66.1614 3.1144 92.0643 -2.70939 117.435 1.17465C139.317 4.52445 159.415 14.8827 174.791 30.5466C178.869 34.702 178.083 41.3805 173.529 45.009C168.975 48.6374 162.385 47.8272 158.195 43.7832C146.212 32.2155 130.877 24.5642 114.244 22.0179C94.1183 18.9368 73.5703 23.5566 56.6996 34.9558C39.829 46.355 27.876 63.6955 23.2253 83.518C18.5746 103.34 21.5681 124.188 31.6084 141.901C41.6488 159.614 57.9981 172.89 77.3945 179.082C96.791 185.274 117.809 183.925 136.255 175.305C154.701 166.686 169.219 151.429 176.914 132.578C183.273 116.999 184.584 99.9117 180.815 83.688C179.497 78.0164 182.187 71.9457 187.639 69.9021Z" fill="url(#paint0_linear_210_164)"/>
<path d="M80.9201 87.88V94.64H70.2001L69.9201 97.68C70.8801 97.44 71.9201 97.28 72.8801 97.28C79.0801 97.28 82.6801 100.96 82.6801 106.6C82.6801 112.4 78.2401 116.56 72.2801 116.56C66.4001 116.56 61.8001 113.12 61.1201 107.6H68.7601C69.2001 108.88 70.1601 109.76 71.9601 109.76C74.0401 109.76 75.2801 108.32 75.2801 106.64C75.2801 104.88 74.0401 103.52 71.9201 103.52C70.2001 103.52 69.2801 104.24 68.6801 104.92L62.6801 104.2L64.1201 87.88H80.9201Z" fill="white"/>
<path d="M105.139 87.88V94.64H94.4189L94.1389 97.68C95.0989 97.44 96.1389 97.28 97.0989 97.28C103.299 97.28 106.899 100.96 106.899 106.6C106.899 112.4 102.459 116.56 96.4989 116.56C90.6189 116.56 86.0189 113.12 85.3389 107.6H92.9789C93.4189 108.88 94.3789 109.76 96.1789 109.76C98.2589 109.76 99.4989 108.32 99.4989 106.64C99.4989 104.88 98.2589 103.52 96.1389 103.52C94.4189 103.52 93.4989 104.24 92.8989 104.92L86.8989 104.2L88.3389 87.88H105.139Z" fill="white"/>
<path d="M116.398 87.04C118.638 87.04 120.331 87.8266 121.478 89.4C122.651 90.9466 123.238 93.1333 123.238 95.96C123.238 98.7866 122.691 101 121.598 102.6C120.504 104.173 118.771 104.96 116.398 104.96C114.931 104.96 113.691 104.6 112.678 103.88C111.691 103.16 110.944 102.133 110.438 100.8C109.931 99.44 109.678 97.8266 109.678 95.96C109.678 93.1333 110.211 90.9466 111.278 89.4C112.344 87.8266 114.051 87.04 116.398 87.04ZM116.438 91.12C115.798 91.12 115.331 91.52 115.038 92.32C114.744 93.12 114.598 94.3466 114.598 96C114.598 97.6266 114.744 98.8533 115.038 99.68C115.331 100.507 115.798 100.92 116.438 100.92C117.078 100.92 117.544 100.507 117.838 99.68C118.158 98.8533 118.318 97.6266 118.318 96C118.318 94.3466 118.158 93.12 117.838 92.32C117.544 91.52 117.078 91.12 116.438 91.12ZM136.678 87.44L120.838 116H116.158L131.998 87.44H136.678ZM136.398 98.44C137.891 98.44 139.144 98.8 140.158 99.52C141.171 100.213 141.931 101.227 142.438 102.56C142.971 103.867 143.238 105.467 143.238 107.36C143.238 110.187 142.691 112.4 141.598 114C140.504 115.573 138.771 116.36 136.398 116.36C134.931 116.36 133.691 116 132.678 115.28C131.691 114.56 130.944 113.533 130.438 112.2C129.931 110.84 129.678 109.227 129.678 107.36C129.678 104.533 130.211 102.347 131.278 100.8C132.344 99.2266 134.051 98.44 136.398 98.44ZM136.438 102.52C135.798 102.52 135.331 102.92 135.038 103.72C134.744 104.52 134.598 105.747 134.598 107.4C134.598 109.027 134.744 110.253 135.038 111.08C135.331 111.907 135.798 112.32 136.438 112.32C137.078 112.32 137.544 111.92 137.838 111.12C138.158 110.293 138.318 109.053 138.318 107.4C138.318 105.747 138.158 104.52 137.838 103.72C137.544 102.92 137.078 102.52 136.438 102.52Z" fill="white"/>
</g>
<defs>
<linearGradient id="paint0_linear_210_164" x1="-12.4346" y1="91.2145" x2="228.124" y2="92.098" gradientUnits="userSpaceOnUse">
<stop stop-color="#F59E0B"/>
<stop offset="1" stop-color="#4A2FBD"/>
</linearGradient>
<clipPath id="clip0_210_164">
<rect width="204" height="204" fill="white"/>
</clipPath>
</defs>
</svg>
