<svg width="204" height="204" viewBox="0 0 204 204" fill="none" xmlns="http://www.w3.org/2000/svg">
<g clip-path="url(#clip0_210_170)">
<path d="M187.639 69.9021C193.092 67.8586 199.226 70.6143 200.696 76.2484C206.238 97.4863 204.802 120.051 196.436 140.546C186.737 164.31 168.435 183.543 145.182 194.409C121.928 205.275 95.4335 206.975 70.9823 199.169C46.5311 191.364 25.9213 174.628 13.2644 152.299C0.607559 129.97 -3.16595 103.69 2.69673 78.7016C8.55941 53.7134 23.6272 31.854 44.8943 17.4842C66.1614 3.1144 92.0643 -2.70939 117.435 1.17465C139.317 4.52445 159.415 14.8827 174.791 30.5466C178.869 34.702 178.083 41.3805 173.529 45.009C168.975 48.6374 162.385 47.8272 158.195 43.7832C146.212 32.2155 130.877 24.5642 114.244 22.0179C94.1183 18.9368 73.5703 23.5566 56.6996 34.9558C39.829 46.355 27.876 63.6955 23.2253 83.518C18.5746 103.34 21.5681 124.188 31.6084 141.901C41.6488 159.614 57.9981 172.89 77.3945 179.082C96.791 185.274 117.809 183.925 136.255 175.305C154.701 166.686 169.219 151.429 176.914 132.578C183.273 116.999 184.584 99.9117 180.815 83.688C179.497 78.0164 182.187 71.9457 187.639 69.9021Z" fill="url(#paint0_linear_210_170)"/>
<path d="M60.04 94.64V87.88H80.36V93.68L69.64 116H61.36L71.88 94.64H60.04Z" fill="white"/>
<path d="M105.147 97.88V105.96C105.147 113.88 99.1866 116.56 94.1466 116.56C89.1466 116.56 83.1866 113.88 83.1866 105.96V97.88C83.1866 89.96 89.1466 87.32 94.1466 87.32C99.1866 87.32 105.147 89.96 105.147 97.88ZM97.7466 97.92C97.7466 96.04 96.9466 94.32 94.0666 94.32C91.4266 94.32 90.5866 96.04 90.5866 97.92V105.92C90.5866 107.84 91.4266 109.52 94.0666 109.52C96.9466 109.52 97.7466 107.84 97.7466 105.92V97.92Z" fill="white"/>
<path d="M115.085 87.04C117.325 87.04 119.018 87.8266 120.165 89.4C121.338 90.9466 121.925 93.1333 121.925 95.96C121.925 98.7866 121.378 101 120.285 102.6C119.192 104.173 117.458 104.96 115.085 104.96C113.618 104.96 112.378 104.6 111.365 103.88C110.378 103.16 109.632 102.133 109.125 100.8C108.618 99.44 108.365 97.8266 108.365 95.96C108.365 93.1333 108.898 90.9466 109.965 89.4C111.032 87.8266 112.738 87.04 115.085 87.04ZM115.125 91.12C114.485 91.12 114.018 91.52 113.725 92.32C113.432 93.12 113.285 94.3466 113.285 96C113.285 97.6266 113.432 98.8533 113.725 99.68C114.018 100.507 114.485 100.92 115.125 100.92C115.765 100.92 116.232 100.507 116.525 99.68C116.845 98.8533 117.005 97.6266 117.005 96C117.005 94.3466 116.845 93.12 116.525 92.32C116.232 91.52 115.765 91.12 115.125 91.12ZM135.365 87.44L119.525 116H114.845L130.685 87.44H135.365ZM135.085 98.44C136.578 98.44 137.832 98.8 138.845 99.52C139.858 100.213 140.618 101.227 141.125 102.56C141.658 103.867 141.925 105.467 141.925 107.36C141.925 110.187 141.378 112.4 140.285 114C139.192 115.573 137.458 116.36 135.085 116.36C133.618 116.36 132.378 116 131.365 115.28C130.378 114.56 129.632 113.533 129.125 112.2C128.618 110.84 128.365 109.227 128.365 107.36C128.365 104.533 128.898 102.347 129.965 100.8C131.032 99.2266 132.738 98.44 135.085 98.44ZM135.125 102.52C134.485 102.52 134.018 102.92 133.725 103.72C133.432 104.52 133.285 105.747 133.285 107.4C133.285 109.027 133.432 110.253 133.725 111.08C134.018 111.907 134.485 112.32 135.125 112.32C135.765 112.32 136.232 111.92 136.525 111.12C136.845 110.293 137.005 109.053 137.005 107.4C137.005 105.747 136.845 104.52 136.525 103.72C136.232 102.92 135.765 102.52 135.125 102.52Z" fill="white"/>
</g>
<defs>
<linearGradient id="paint0_linear_210_170" x1="-12.4346" y1="91.2145" x2="228.124" y2="92.098" gradientUnits="userSpaceOnUse">
<stop stop-color="#F59E0B"/>
<stop offset="1" stop-color="#4A2FBD"/>
</linearGradient>
<clipPath id="clip0_210_170">
<rect width="204" height="204" fill="white"/>
</clipPath>
</defs>
</svg>
