<svg width="204" height="204" viewBox="0 0 204 204" fill="none" xmlns="http://www.w3.org/2000/svg">
<g clip-path="url(#clip0_210_167)">
<path d="M187.639 69.9021C193.092 67.8586 199.226 70.6143 200.696 76.2484C206.238 97.4863 204.802 120.051 196.436 140.546C186.737 164.31 168.435 183.543 145.182 194.409C121.928 205.275 95.4335 206.975 70.9823 199.169C46.5311 191.364 25.9213 174.628 13.2644 152.299C0.607559 129.97 -3.16595 103.69 2.69673 78.7016C8.55941 53.7134 23.6272 31.854 44.8943 17.4842C66.1614 3.1144 92.0643 -2.70939 117.435 1.17465C139.317 4.52445 159.415 14.8827 174.791 30.5466C178.869 34.702 178.083 41.3805 173.529 45.009C168.975 48.6374 162.385 47.8272 158.195 43.7832C146.212 32.2155 130.877 24.5642 114.244 22.0179C94.1183 18.9368 73.5703 23.5566 56.6996 34.9558C39.829 46.355 27.876 63.6955 23.2253 83.518C18.5746 103.34 21.5681 124.188 31.6084 141.901C41.6488 159.614 57.9981 172.89 77.3945 179.082C96.791 185.274 117.809 183.925 136.255 175.305C154.701 166.686 169.219 151.429 176.914 132.578C183.273 116.999 184.584 99.9117 180.815 83.688C179.497 78.0164 182.187 71.9457 187.639 69.9021Z" fill="url(#paint0_linear_210_167)"/>
<path d="M59.4004 106.48C59.4004 104.04 60.2804 100.92 61.8404 98.44L68.4404 87.88H77.0404L70.7204 97.12H71.4804C77.0804 97.12 81.2004 101.32 81.2004 106.48C81.2004 112 76.5604 116.56 70.3204 116.56C63.9604 116.56 59.4004 112 59.4004 106.48ZM70.3204 109.96C72.4404 109.96 73.7604 108.36 73.7604 106.48C73.7604 104.56 72.4404 103 70.3204 103C68.2004 103 66.8404 104.56 66.8404 106.48C66.8404 108.36 68.2004 109.96 70.3204 109.96Z" fill="white"/>
<path d="M105.983 97.88V105.96C105.983 113.88 100.023 116.56 94.9829 116.56C89.9829 116.56 84.0229 113.88 84.0229 105.96V97.88C84.0229 89.96 89.9829 87.32 94.9829 87.32C100.023 87.32 105.983 89.96 105.983 97.88ZM98.5829 97.92C98.5829 96.04 97.7829 94.32 94.9029 94.32C92.2629 94.32 91.4229 96.04 91.4229 97.92V105.92C91.4229 107.84 92.2629 109.52 94.9029 109.52C97.7829 109.52 98.5829 107.84 98.5829 105.92V97.92Z" fill="white"/>
<path d="M115.921 87.04C118.161 87.04 119.855 87.8266 121.001 89.4C122.175 90.9466 122.761 93.1333 122.761 95.96C122.761 98.7866 122.215 101 121.121 102.6C120.028 104.173 118.295 104.96 115.921 104.96C114.455 104.96 113.215 104.6 112.201 103.88C111.215 103.16 110.468 102.133 109.961 100.8C109.455 99.44 109.201 97.8266 109.201 95.96C109.201 93.1333 109.735 90.9466 110.801 89.4C111.868 87.8266 113.575 87.04 115.921 87.04ZM115.961 91.12C115.321 91.12 114.855 91.52 114.561 92.32C114.268 93.12 114.121 94.3466 114.121 96C114.121 97.6266 114.268 98.8533 114.561 99.68C114.855 100.507 115.321 100.92 115.961 100.92C116.601 100.92 117.068 100.507 117.361 99.68C117.681 98.8533 117.841 97.6266 117.841 96C117.841 94.3466 117.681 93.12 117.361 92.32C117.068 91.52 116.601 91.12 115.961 91.12ZM136.201 87.44L120.361 116H115.681L131.521 87.44H136.201ZM135.921 98.44C137.415 98.44 138.668 98.8 139.681 99.52C140.695 100.213 141.455 101.227 141.961 102.56C142.495 103.867 142.761 105.467 142.761 107.36C142.761 110.187 142.215 112.4 141.121 114C140.028 115.573 138.295 116.36 135.921 116.36C134.455 116.36 133.215 116 132.201 115.28C131.215 114.56 130.468 113.533 129.961 112.2C129.455 110.84 129.201 109.227 129.201 107.36C129.201 104.533 129.735 102.347 130.801 100.8C131.868 99.2266 133.575 98.44 135.921 98.44ZM135.961 102.52C135.321 102.52 134.855 102.92 134.561 103.72C134.268 104.52 134.121 105.747 134.121 107.4C134.121 109.027 134.268 110.253 134.561 111.08C134.855 111.907 135.321 112.32 135.961 112.32C136.601 112.32 137.068 111.92 137.361 111.12C137.681 110.293 137.841 109.053 137.841 107.4C137.841 105.747 137.681 104.52 137.361 103.72C137.068 102.92 136.601 102.52 135.961 102.52Z" fill="white"/>
</g>
<defs>
<linearGradient id="paint0_linear_210_167" x1="-12.4346" y1="91.2145" x2="228.124" y2="92.098" gradientUnits="userSpaceOnUse">
<stop stop-color="#F59E0B"/>
<stop offset="1" stop-color="#4A2FBD"/>
</linearGradient>
<clipPath id="clip0_210_167">
<rect width="204" height="204" fill="white"/>
</clipPath>
</defs>
</svg>
