<svg width="339" height="339" viewBox="0 0 339 339" fill="none" xmlns="http://www.w3.org/2000/svg">
<g clip-path="url(#clip0_205_37)">
<path d="M158.41 0.264726C157.682 0.33093 155.365 0.562646 153.279 0.728157C105.182 5.06455 60.1298 31.0167 31.5957 70.9049C15.7066 93.0834 5.5442 118.241 1.70434 144.888C0.347152 154.19 0.181641 156.938 0.181641 169.55C0.181641 182.161 0.347152 184.909 1.70434 194.211C10.9068 257.8 56.1575 311.227 117.529 331.022C128.519 334.564 140.105 336.981 153.279 338.437C158.41 339 180.589 339 185.72 338.437C208.461 335.921 227.726 330.294 246.727 320.595C249.64 319.105 250.203 318.708 249.806 318.377C249.541 318.179 237.127 301.528 222.231 281.402L195.154 244.824L161.224 194.608C142.554 167.001 127.195 144.425 127.063 144.425C126.93 144.392 126.798 166.703 126.731 193.946C126.632 241.646 126.599 243.566 126.003 244.692C125.143 246.314 124.481 246.976 123.09 247.704C122.031 248.234 121.104 248.333 116.106 248.333H110.379L108.856 247.373C107.863 246.744 107.135 245.916 106.638 244.956L105.943 243.467L106.009 177.097L106.109 110.694L107.135 109.403C107.665 108.708 108.79 107.814 109.585 107.384C110.942 106.722 111.471 106.655 117.198 106.655C123.951 106.655 125.076 106.92 126.831 108.84C127.327 109.37 145.699 137.043 167.679 170.377C189.659 203.711 219.716 249.227 234.479 271.571L261.292 312.187L262.649 311.293C274.665 303.481 287.377 292.359 297.44 280.773C318.857 256.178 332.661 226.187 337.295 194.211C338.652 184.909 338.818 182.161 338.818 169.55C338.818 156.938 338.652 154.19 337.295 144.888C328.092 81.299 282.842 27.872 221.47 8.07685C210.646 4.56802 199.126 2.15155 186.216 0.695055C183.038 0.364032 161.158 -9.23872e-05 158.41 0.264726ZM227.726 102.683C229.315 103.477 230.606 105 231.07 106.589C231.335 107.45 231.401 125.855 231.335 167.332L231.235 226.85L220.742 210.762L210.215 194.674V151.41C210.215 123.438 210.348 107.715 210.546 106.953C211.076 105.1 212.235 103.643 213.823 102.782C215.181 102.087 215.677 102.021 220.874 102.021C225.773 102.021 226.634 102.087 227.726 102.683Z" fill="white"/>
<path d="M259.638 312.915C258.48 313.644 258.115 314.14 259.142 313.577C259.87 313.147 261.062 312.253 260.863 312.22C260.764 312.22 260.201 312.551 259.638 312.915ZM257.354 314.405C256.758 314.868 256.758 314.901 257.487 314.537C257.884 314.339 258.215 314.107 258.215 314.041C258.215 313.776 258.049 313.842 257.354 314.405ZM255.699 315.398C255.103 315.861 255.103 315.895 255.831 315.53C256.229 315.332 256.56 315.1 256.56 315.034C256.56 314.769 256.394 314.835 255.699 315.398ZM254.044 316.391C253.448 316.855 253.448 316.888 254.176 316.524C254.574 316.325 254.905 316.093 254.905 316.027C254.905 315.762 254.739 315.828 254.044 316.391ZM251.528 317.715C250.27 318.377 250.336 318.642 251.594 318.013C252.157 317.715 252.587 317.417 252.587 317.351C252.587 317.119 252.554 317.152 251.528 317.715Z" fill="white"/>
</g>
<defs>
<clipPath id="clip0_205_37">
<rect width="339" height="339" fill="white"/>
</clipPath>
</defs>
</svg>
